<svg viewBox="0 0 67 70" fill="none" xmlns="http://www.w3.org/2000/svg">
<path fill-rule="evenodd" clip-rule="evenodd" d="M49.3823 70C41.5627 70 33.7431 70 25.9235 70C25.8701 69.8555 25.8074 69.7138 25.7351 69.5749C25.7306 69.0752 25.7306 68.5713 25.7351 68.0634C25.6723 67.9375 25.6095 67.8115 25.5467 67.6856C25.6988 67.3745 25.6674 67.0911 25.4525 66.8354C25.585 66.3663 25.5222 65.8625 25.2641 65.3239C25.2954 65.2924 25.3269 65.2609 25.3583 65.2294C25.2775 65.1643 25.2148 65.0856 25.1698 64.9933C25.1307 64.612 25.1307 64.2183 25.1698 63.8124C25.0773 63.2409 24.8889 62.6741 24.6046 62.112C24.6359 62.0806 24.6674 62.049 24.6988 62.0175C24.6476 61.6895 24.5534 61.3746 24.4161 61.0729C24.4475 60.9784 24.479 60.8839 24.5104 60.7895C24.3484 60.1941 24.1914 59.5959 24.0393 58.9946C24.1147 58.8257 24.1461 58.6682 24.1335 58.5223C23.9841 57.5379 23.7328 56.5618 23.3798 55.5938C23.3798 55.4049 23.3798 55.2159 23.3798 55.027C23.1932 54.9698 23.1617 54.8754 23.2856 54.7436C23.2113 54.5294 23.1484 54.309 23.0972 54.0823C23.0977 53.7375 23.0977 53.3912 23.0972 53.0432C22.9647 52.5403 22.8077 52.0365 22.6261 51.5317C22.6575 51.5003 22.689 51.4687 22.7203 51.4372C22.6314 51.0451 22.5372 50.6515 22.4377 50.2564C22.4783 50.1815 22.5098 50.1027 22.5319 50.0202C22.273 48.9739 21.9904 47.9348 21.684 46.9028C21.6778 46.6069 21.6778 46.3077 21.684 46.0054C21.3574 45.1537 21.1689 44.2878 21.1187 43.4076C20.9477 42.9204 20.775 42.4323 20.6006 41.9433C20.4183 41.5239 20.167 41.146 19.8469 40.8097C19.7887 40.7201 19.8044 40.6414 19.894 40.5736C19.6887 40.5318 19.6259 40.4373 19.7055 40.2901C18.7914 38.6029 18.0377 36.8867 17.4445 35.1417C17.3133 35.0373 17.2034 34.9113 17.1147 34.7638C16.9772 34.9454 16.8201 35.0084 16.6436 34.9528C14.7126 36.0274 12.9382 37.35 11.3207 38.9204C10.9021 39.4041 10.5567 39.9394 10.2843 40.5263C9.76164 41.2551 9.13363 41.8692 8.40009 42.3684C7.46062 42.9016 6.5 43 5.5 42.7935C5.03849 42.8041 4.60975 42.7411 4.16055 42.7935C3.65597 42.6092 3.1535 42.436 2.65316 42.274C2.04169 41.6442 1.44502 41.0617 0.863127 40.5263C0.734358 40.1526 0.56163 39.8062 0.344961 39.4872C-0.329231 37.403 -0.0151929 35.4821 1.28708 33.7247C1.72406 33.3548 2.19512 32.9453 2.70026 32.4966C2.73166 32.5281 2.76307 32.5596 2.79447 32.5911C2.84158 32.4179 2.9515 32.3077 3.12422 32.2605C3.68576 32.1006 4.25103 31.9589 4.82003 31.8354C4.87524 31.8551 4.92235 31.8867 4.96135 31.9298C5.92084 31.8782 6.86296 31.7208 7.78771 31.4575C7.81911 31.4889 7.88241 31.4733 7.91381 31.5047C8.16505 31.3788 8.38436 31.3 8.63562 31.1741C8.7793 31.1374 8.93635 31.1374 9.10668 31.1741C10.0871 30.7309 11.0764 30.3058 12.0744 29.8988C12.8844 29.3554 13.7323 28.8831 14.6181 28.4818C14.9024 28.2971 15.1693 28.0924 15.4189 27.8677C15.5647 27.6121 15.6746 27.3444 15.7486 27.0648C15.6451 26.57 15.6451 26.0976 15.7486 25.6478C15.6661 25.4979 15.5719 25.3562 15.466 25.2227C15.3191 25.2769 15.1778 25.3398 15.042 25.4116C14.769 25.4383 14.4864 25.4383 14.1941 25.4116C13.9184 25.5789 13.6357 25.6419 13.3462 25.6005C12.4776 25.9989 11.8181 26.6287 11.3678 27.4899C10.1615 28.8182 8.65409 29.448 6.84559 29.3792C6.43734 29.3162 6.02909 29.2533 5.62084 29.1903C5.58944 29.2217 5.55803 29.2533 5.52662 29.2848C5.12237 29.1086 4.69842 28.9984 4.25476 28.9541C3.79065 28.8243 3.39811 28.5882 3.07711 28.2456C2.90146 27.6386 3.08989 27.1978 3.64238 26.9231C4.15622 26.7048 4.67438 26.5001 5.19688 26.309C5.66195 25.9877 6.16442 25.72 6.70428 25.5061C6.96228 25.2953 7.11931 25.0277 7.17534 24.7031C7.06934 24.3056 6.95943 23.8805 6.84559 23.4278C6.53905 22.9311 6.1622 22.4903 5.71505 22.1053C5.2459 22.1518 4.75914 22.2306 4.25476 22.3414C3.75011 22.647 3.21623 22.8989 2.65316 23.0972C2.12714 23.1102 1.64038 23.126 1.19287 23.1444C0.880114 22.9291 0.707385 22.6299 0.674703 22.247C0.695486 21.99 0.773993 21.7224 0.910233 21.444C1.62785 20.2821 2.49145 19.2273 3.50107 18.2794C3.89874 17.9697 4.3384 17.7335 4.82003 17.5709C4.88285 17.6023 4.94565 17.6339 5.00846 17.6653C5.32934 17.5411 5.65908 17.4466 5.99768 17.3819C6.31875 17.4833 6.6328 17.4833 6.93981 17.3819C7.14629 17.4668 7.35042 17.5613 7.55218 17.6653C7.90306 17.6115 8.2014 17.7374 8.4472 18.0432C8.47857 18.0117 8.51004 17.9802 8.54141 17.9487C9.09293 18.3137 9.64247 18.6758 10.1901 19.0351C10.6913 19.0596 11.1467 19.2014 11.5562 19.4602C11.9644 19.4602 12.4355 19.4602 12.9694 19.4602C13.7544 19.3027 14.5396 19.1453 15.3247 18.9879C15.6983 19.1117 16.0752 19.1117 16.4552 18.9879C16.5808 18.9248 16.7065 18.8619 16.8321 18.7989C16.8534 18.5538 16.9005 18.3176 16.9734 18.0904C16.8748 17.7536 16.9376 17.4386 17.1618 17.1458C17.1188 17.1066 17.0873 17.0594 17.0676 17.004C17.2811 16.4435 17.4852 15.9081 17.68 15.3981C18.2185 14.7992 18.7209 14.2324 19.1874 13.6977C19.626 13.304 20.1442 13.0836 20.7419 13.0364C21.3774 13.1552 21.9898 13.1552 22.579 13.0364C23.2431 12.3383 24.0282 11.8345 24.9343 11.525C24.9657 11.5564 25 11.5 25.0285 11.6194C25.1663 11.4109 25.3389 11.3479 25.5467 11.4305C25.7548 11.3733 25.959 11.3102 26.1591 11.2416C26.7557 11.3046 27.3524 11.3675 27.9491 11.4305C28.3748 10.8554 28.9087 10.4145 29.5507 10.108C29.5821 10.1394 29.6135 10.171 29.6449 10.2024C29.9062 10.0563 30.1888 9.96182 30.4928 9.91903C30.852 9.99111 31.1973 9.99111 31.5292 9.91903C31.8118 9.98204 32.0944 10.045 32.3771 10.108C32.6238 9.99186 32.8593 10.0233 33.0837 10.2024C33.4735 9.70109 33.8817 9.21308 34.3084 8.73819C34.6269 8.627 34.9253 8.4853 35.2034 8.31309C36.0149 8.31857 36.8314 8.31857 37.6529 8.31309C37.8909 8.36637 38.1264 8.42938 38.3595 8.50202C38.6605 8.27927 38.9745 8.07455 39.3016 7.88799C39.4901 7.84076 39.6785 7.79352 39.8669 7.74629C40.3949 7.70204 40.9287 7.74927 41.4685 7.88799C41.6098 8.02969 41.7512 8.17139 41.8925 8.31309C42.4482 9.25984 42.9507 10.236 43.3999 11.2416C43.6761 11.5452 44.0058 11.7656 44.3891 11.9028C45.0674 11.6312 45.6641 11.3006 46.1791 10.9109C46.4528 10.813 46.7198 10.7027 46.9799 10.5803C47.0113 10.6118 47.0428 10.6433 47.0741 10.6748C47.1094 10.5882 47.1565 10.5094 47.2155 10.4386C49.9925 9.16556 52.018 7.13449 53.2921 4.34548C53.5153 3.40976 53.9707 2.60679 54.6582 1.93657C55.9463 1.00122 57.3752 0.355696 58.9449 0C59.8163 0.0262524 60.6957 0.0262524 61.5828 0C61.7795 0.0763387 61.9679 0.170806 62.1481 0.283401C62.5453 1.33638 62.2155 2.09211 61.1588 2.55061C60.4979 3.29215 59.7913 3.98491 59.0391 4.62888C58.8355 5.18269 58.8669 5.718 59.1333 6.23482C59.5859 6.75199 60.0413 7.27155 60.4994 7.79352C60.8622 7.99845 61.2234 8.20312 61.5828 8.40756C62.0381 8.1399 62.4936 7.87224 62.9489 7.60459C63.2873 7.32865 63.5542 6.99802 63.7497 6.61269C64.0705 6.30249 64.4002 6.00336 64.7389 5.71525C64.8645 5.65227 64.9902 5.5893 65.1158 5.52632C65.6216 5.48923 66.1083 5.47348 66.576 5.47908C66.6703 5.57355 66.7645 5.66802 66.8587 5.76248C66.9175 6.24932 66.9646 6.70592 67 7.13225C66.6874 8.45054 66.2634 9.72584 65.7281 10.9582C65.1322 11.6347 64.5512 12.3275 63.9852 13.0364C63.5326 13.2589 63.0616 13.4321 62.572 13.556C61.8466 13.6022 61.1715 13.6494 60.5465 13.6977C60.7241 14.1517 60.8968 14.624 61.0646 15.1147C61.3866 18.5509 59.8635 20.4087 56.4954 20.6883C56.1479 20.6141 55.8024 20.5196 55.459 20.4049C55.0736 20.4891 54.7281 20.3947 54.4227 20.1215C54.2693 20.1779 54.1123 20.1463 53.9516 20.027C53.9203 20.0584 53.8888 20.09 53.8574 20.1215C53 19.8163 52.1521 19.8163 51.3137 20.1215C51.0201 20.1269 50.7218 20.1269 50.4187 20.1215C49.5709 20.3722 48.7229 20.5927 47.8749 20.7827C47.8077 21.0214 47.7449 21.2576 47.6865 21.4912C47.7384 21.6233 47.7698 21.7493 47.7807 21.8691C47.7179 22.4044 47.6551 22.9397 47.5923 23.475C47.583 24.4095 47.6144 25.3542 47.6865 26.309C47.5577 26.9483 47.3537 27.5623 47.0741 28.1511C46.3605 29.0158 45.7166 29.8818 45.1428 30.749C44.0621 32.2111 42.9786 33.6754 41.8925 35.1417C41.8113 35.2916 41.7484 35.4491 41.7041 35.614C41.0749 36.2765 40.4783 36.9693 39.914 37.6923C39.8448 37.9163 39.7663 38.1368 39.6785 38.3536C39.7493 38.9874 39.7493 39.6015 39.6785 40.1957C40.2373 42.0758 40.7241 43.9493 41.1388 45.8165C41.5806 47.4254 42.0988 49.0314 42.6933 50.6343C42.6736 50.6896 42.6421 50.7369 42.5991 50.776C42.7162 50.885 42.8104 51.011 42.8817 51.1538C42.9183 51.2979 42.9183 51.4554 42.8817 51.6262C43.4327 52.7139 43.7781 53.816 43.918 54.9325C44.1553 55.444 44.3751 55.9635 44.5775 56.4912C44.5578 56.5466 44.5264 56.5938 44.4833 56.6329C44.7756 57.1742 44.9012 57.741 44.8602 58.3333C45.098 58.7659 45.3179 59.2068 45.5196 59.6559C45.4766 59.695 45.4451 59.7422 45.4254 59.7976C45.5976 60.0763 45.6604 60.3596 45.6139 60.6478C45.8432 61.298 46.0944 61.9435 46.3676 62.5843C46.3184 62.6373 46.287 62.7004 46.2733 62.7733C46.4822 62.9346 46.545 63.1236 46.4618 63.3401C46.5738 63.5191 46.668 63.708 46.7444 63.9069C46.6541 64.0152 46.6855 64.1097 46.8386 64.1903C46.7956 64.2294 46.7641 64.2766 46.7444 64.332C46.9987 64.6059 47.2186 64.9051 47.4039 65.2294C47.3725 65.2609 47.341 65.2924 47.3097 65.3239C47.5917 65.6174 47.7173 65.948 47.6865 66.3158C48.251 67.5966 48.8163 68.8246 49.3823 70ZM56.354 14.4534C56.8099 14.4062 57.2338 14.2645 57.6107 14.5479C57.6107 14.5479 57.8933 14.6424 57.9875 14.7368C58.3173 15.0202 58.4811 15.2092 58.568 15.587C58.7469 16.3647 58.5742 17.0417 58.0499 17.6181C57.6578 17.9015 57.1867 17.996 56.6838 18.0432C56.3388 18.0432 55.962 17.996 55.6003 17.8543C55.2554 17.4764 54.9256 17.004 54.7524 16.4845C54.7524 16.0121 54.9387 15.5132 55.3177 15.1147C55.6322 14.7841 55.9149 14.5479 56.354 14.4534ZM4.63161 34.8583C5.19541 34.8707 5.74499 34.8707 6.28032 34.8583C6.55748 34.8519 7 35 7.17534 35.1889C7.52544 35.6842 7.80807 36.1348 8.21167 36.5841C8.13085 36.7324 8.16225 36.9117 8.11746 37.0783C8.11543 37.3245 8.14683 37.5764 8.21167 37.834C8.02686 38.3076 7.80704 38.7642 7.55218 39.2038C7.30387 39.3382 7.08404 39.5115 6.8927 39.7233C5.83173 39.9845 4.85821 39.8586 3.97213 39.3455C3.76646 39.0036 3.53093 38.6414 3.26553 38.2591C2.99791 37.2692 3.17063 36.3403 3.7837 35.4723C4.07267 35.2656 4.3553 35.0609 4.63161 34.8583Z" fill="#111111"/>
</svg>
