<svg width="35" height="31" viewBox="0 0 35 31" fill="none" xmlns="http://www.w3.org/2000/svg">
<path d="M29.4699 22C28.7486 22 28.0606 21.9084 27.4062 21.7254C26.765 21.5282 26.1908 21.2324 25.6831 20.838C25.1753 20.4437 24.7682 19.9578 24.4608 19.3803C24.1671 18.8028 24.0132 18.1197 24 17.331C24 17.2042 24.0401 17.0986 24.1202 17.0141C24.2004 16.9155 24.3005 16.8662 24.4208 16.8662H26.3242C26.4977 16.8662 26.6248 16.9155 26.7049 17.0141C26.7983 17.1127 26.872 17.2465 26.9253 17.4155C26.9922 17.9225 27.1457 18.338 27.3862 18.662C27.6266 18.9718 27.9271 19.2042 28.2878 19.3592C28.6617 19.5 29.076 19.5704 29.5301 19.5704C30.3716 19.5704 31.0128 19.2817 31.4536 18.7042C31.9076 18.1267 32.1348 17.3239 32.1348 16.2958V9.49296H25.3424C25.1954 9.49296 25.0752 9.44365 24.9818 9.34507C24.9016 9.24649 24.8616 9.12675 24.8616 8.98592V7.50704C24.8616 7.36621 24.9016 7.24646 24.9818 7.14789C25.0752 7.04931 25.1954 7 25.3424 7H34.4991C34.6462 7 34.7664 7.04931 34.8597 7.14789C34.9531 7.24646 35 7.37323 35 7.52817V16.3803C35 17.5493 34.7664 18.5563 34.2987 19.4014C33.8447 20.2465 33.2035 20.8944 32.3752 21.3451C31.5605 21.7817 30.592 22 29.4699 22Z" fill="#111111"/>
<circle cx="15" cy="11" r="4" stroke="#111111" stroke-width="2"/>
<mask id="path-3-inside-1_206_73" fill="white">
<path d="M10.0001 23C8.34327 23 6.9492 21.6115 7.55609 20.0698C7.95457 19.0575 8.55912 18.1273 9.34327 17.3431C10.8436 15.8429 12.8784 15 15.0001 15C17.1219 15 19.1567 15.8429 20.657 17.3431C21.4411 18.1273 22.0457 19.0575 22.4442 20.0698C23.051 21.6115 21.657 23 20.0001 23L15.0001 23H10.0001Z"/>
</mask>
<path d="M10.0001 23C8.34327 23 6.9492 21.6115 7.55609 20.0698C7.95457 19.0575 8.55912 18.1273 9.34327 17.3431C10.8436 15.8429 12.8784 15 15.0001 15C17.1219 15 19.1567 15.8429 20.657 17.3431C21.4411 18.1273 22.0457 19.0575 22.4442 20.0698C23.051 21.6115 21.657 23 20.0001 23L15.0001 23H10.0001Z" stroke="#111111" stroke-width="4" mask="url(#path-3-inside-1_206_73)"/>
<mask id="path-4-inside-2_206_73" fill="white">
<path d="M25.5793 24.2379C25.9766 24.5848 26.0195 25.1906 25.648 25.5651C23.7911 27.4366 21.4691 28.7899 18.9132 29.4806C16.0492 30.2545 13.02 30.1618 10.2087 29.2142C7.39743 28.2666 4.93026 26.5066 3.11922 24.1568C1.30817 21.807 0.234595 18.9729 0.034244 16.013C-0.166106 13.053 0.515769 10.1002 1.99364 7.52774C3.47151 4.95533 5.67901 2.87892 8.33697 1.5611C10.9949 0.243277 13.984 -0.256774 16.9261 0.124182C19.5519 0.464164 22.035 1.4922 24.1271 3.09641C24.5457 3.41737 24.5848 4.02341 24.2379 4.42074V4.42074C23.891 4.81806 23.2896 4.85579 22.868 4.53873C21.0627 3.18092 18.9318 2.31 16.6809 2.01854C14.1134 1.6861 11.505 2.12247 9.18548 3.27248C6.86599 4.42248 4.93961 6.23447 3.64994 8.4793C2.36026 10.7241 1.76522 13.301 1.94006 15.884C2.1149 18.467 3.05176 20.9402 4.63218 22.9907C6.21259 25.0413 8.36558 26.5772 10.8189 27.4041C13.2722 28.231 15.9156 28.3119 18.4149 27.6365C20.606 27.0444 22.6001 25.8943 24.206 24.3056C24.5809 23.9346 25.1819 23.891 25.5793 24.2379V24.2379Z"/>
</mask>
<path d="M25.5793 24.2379C25.9766 24.5848 26.0195 25.1906 25.648 25.5651C23.7911 27.4366 21.4691 28.7899 18.9132 29.4806C16.0492 30.2545 13.02 30.1618 10.2087 29.2142C7.39743 28.2666 4.93026 26.5066 3.11922 24.1568C1.30817 21.807 0.234595 18.9729 0.034244 16.013C-0.166106 13.053 0.515769 10.1002 1.99364 7.52774C3.47151 4.95533 5.67901 2.87892 8.33697 1.5611C10.9949 0.243277 13.984 -0.256774 16.9261 0.124182C19.5519 0.464164 22.035 1.4922 24.1271 3.09641C24.5457 3.41737 24.5848 4.02341 24.2379 4.42074V4.42074C23.891 4.81806 23.2896 4.85579 22.868 4.53873C21.0627 3.18092 18.9318 2.31 16.6809 2.01854C14.1134 1.6861 11.505 2.12247 9.18548 3.27248C6.86599 4.42248 4.93961 6.23447 3.64994 8.4793C2.36026 10.7241 1.76522 13.301 1.94006 15.884C2.1149 18.467 3.05176 20.9402 4.63218 22.9907C6.21259 25.0413 8.36558 26.5772 10.8189 27.4041C13.2722 28.231 15.9156 28.3119 18.4149 27.6365C20.606 27.0444 22.6001 25.8943 24.206 24.3056C24.5809 23.9346 25.1819 23.891 25.5793 24.2379V24.2379Z" stroke="#111111" stroke-width="4" mask="url(#path-4-inside-2_206_73)"/>
</svg>
