<svg width="30" height="30" viewBox="0 0 30 30" fill="none" xmlns="http://www.w3.org/2000/svg">
<path d="M15 0C6.71574 3.07606e-05 3.07606e-05 6.71574 0 15C3.16073e-05 23.2843 6.71574 30 15 30C23.2843 30 30 23.2843 30 15C30 6.71574 23.2843 3.16073e-05 15 0ZM22.7701 6.73716C23.3795 6.71494 23.8408 7.26658 23.5936 8.25788L20.6216 22.2646C20.4141 23.26 19.8122 23.4982 18.979 23.0385L14.451 19.6928C13.3875 20.7268 12.4348 21.6529 12.2744 21.8099C12.0221 22.0564 11.8212 22.263 11.3682 22.263C10.7813 22.263 10.8812 22.0409 10.6787 21.482L9.01301 16.3758L4.65973 15.0165C3.69265 14.7203 3.68562 14.0559 4.8769 13.5779L22.3313 6.84574C22.4808 6.7779 22.6295 6.74228 22.7701 6.73716ZM20.0015 9.71632C19.8702 9.71449 19.6918 9.76146 19.5082 9.87286L9.69648 16.0632L11.3495 21.1325L11.6769 17.6435L20.0786 10.063C20.3091 9.85844 20.2202 9.71936 20.0015 9.71632Z" fill="black"/>
</svg>
