<svg width="24" height="24" viewBox="0 0 24 24" fill="none" xmlns="http://www.w3.org/2000/svg">
<path fill-rule="evenodd" clip-rule="evenodd" d="M8.89153 21.0787L8.94634 21.1315L8.95063 21.1357C9.95486 22.098 10.9285 22.7576 12.0298 22.7449C13.1261 22.7323 14.0958 22.0555 15.0994 21.0783C16.4749 19.7455 18.2547 17.9477 19.5405 15.8149C20.8312 13.6741 21.6641 11.1292 21.0374 8.33595C18.9199 -1.10413 5.09157 -1.11519 2.963 8.32592C2.35406 11.04 3.12338 13.5227 4.35023 15.6268C5.57246 17.7231 7.28264 19.5029 8.65418 20.8471C8.7341 20.9254 8.81297 21.0023 8.89059 21.0778L8.89153 21.0787ZM12.0002 6.25012C10.2053 6.25012 8.75024 7.7052 8.75024 9.50012C8.75024 11.295 10.2053 12.7501 12.0002 12.7501C13.7951 12.7501 15.2502 11.295 15.2502 9.50012C15.2502 7.7052 13.7951 6.25012 12.0002 6.25012Z" fill="black"/>
</svg>
