<svg width="173" height="57" viewBox="0 0 173 57" fill="none" xmlns="http://www.w3.org/2000/svg">
<g clip-path="url(#clip0_103_10)">
<path fill-rule="evenodd" clip-rule="evenodd" d="M36.6658 57C30.8599 57 25.0539 57 19.2479 57C19.2083 56.8823 19.1617 56.7669 19.108 56.6538C19.1047 56.2469 19.1047 55.8366 19.108 55.4231C19.0614 55.3205 19.0148 55.2179 18.9682 55.1154C19.0811 54.8621 19.0578 54.6313 18.8982 54.4231C18.9966 54.0411 18.95 53.6309 18.7583 53.1923C18.7816 53.1667 18.805 53.141 18.8283 53.1154C18.7683 53.0624 18.7217 52.9983 18.6883 52.9231C18.6593 52.6126 18.6593 52.292 18.6883 51.9615C18.6196 51.4962 18.4797 51.0346 18.2687 50.5769C18.2919 50.5513 18.3153 50.5256 18.3386 50.5C18.3006 50.2329 18.2306 49.9765 18.1287 49.7308C18.152 49.6538 18.1754 49.5769 18.1987 49.5C18.0784 49.0152 17.9619 48.5281 17.8489 48.0385C17.9049 47.9009 17.9282 47.7727 17.9189 47.6539C17.8079 46.8523 17.6213 46.0575 17.3593 45.2692C17.3593 45.1154 17.3593 44.9615 17.3593 44.8077C17.2207 44.7611 17.1973 44.6843 17.2893 44.5769C17.2341 44.4025 17.1874 44.223 17.1494 44.0384C17.1498 43.7577 17.1498 43.4757 17.1494 43.1923C17.051 42.7828 16.9345 42.3726 16.7996 41.9615C16.823 41.936 16.8463 41.9102 16.8696 41.8846C16.8036 41.5653 16.7336 41.2448 16.6598 40.9231C16.6899 40.8621 16.7133 40.7979 16.7297 40.7307C16.5375 39.8787 16.3276 39.0326 16.1001 38.1923C16.0955 37.9513 16.0955 37.7077 16.1001 37.4615C15.8576 36.768 15.7177 36.0629 15.6804 35.3462C15.5534 34.9495 15.4252 34.552 15.2957 34.1538C15.1604 33.8123 14.9738 33.5046 14.7361 33.2308C14.6929 33.1578 14.7046 33.0937 14.7711 33.0385C14.6186 33.0045 14.572 32.9275 14.6311 32.8077C13.9524 31.4338 13.3928 30.0363 12.9524 28.6154C12.8549 28.5304 12.7733 28.4278 12.7075 28.3077C12.6054 28.4555 12.4887 28.5068 12.3577 28.4616C10.9239 29.3366 9.60647 30.4136 8.4055 31.6923C8.09469 32.0862 7.83824 32.5221 7.63598 33C7.24791 33.5934 6.78162 34.0935 6.23698 34.5C5.53943 34.9342 4.82618 35.0143 4.08369 34.8461C3.74102 34.8548 3.42269 34.8035 3.08916 34.8461C2.71452 34.6961 2.34144 34.555 1.96994 34.4231C1.51593 33.9103 1.07291 33.436 0.640863 33C0.545253 32.6957 0.417004 32.4136 0.25613 32.1539C-0.24445 30.4567 -0.0112805 28.8926 0.955643 27.4615C1.2801 27.1603 1.62985 26.8269 2.00491 26.4615C2.02823 26.4872 2.05155 26.5128 2.07486 26.5385C2.10984 26.3974 2.19146 26.3077 2.3197 26.2693C2.73664 26.1391 3.15634 26.0237 3.57882 25.9231C3.61981 25.9392 3.65479 25.9649 3.68375 26C4.39616 25.958 5.09567 25.8298 5.78229 25.6154C5.80561 25.641 5.8526 25.6283 5.87592 25.6538C6.06246 25.5513 6.2253 25.4871 6.41186 25.3846C6.51854 25.3547 6.63514 25.3547 6.76161 25.3846C7.48956 25.0237 8.22411 24.6776 8.96511 24.3462C9.56653 23.9037 10.1961 23.5191 10.8538 23.1923C11.0649 23.0419 11.263 22.8752 11.4484 22.6923C11.5566 22.4841 11.6382 22.2662 11.6932 22.0385C11.6163 21.6356 11.6163 21.2509 11.6932 20.8846C11.6319 20.7626 11.562 20.6472 11.4833 20.5385C11.3743 20.5826 11.2694 20.6338 11.1685 20.6923C10.9658 20.714 10.756 20.714 10.539 20.6923C10.3343 20.8285 10.1244 20.8798 9.90941 20.8461C9.26448 21.1705 8.77481 21.6834 8.44047 22.3846C7.5448 23.4662 6.42557 23.9791 5.08278 23.9231C4.77966 23.8718 4.47653 23.8205 4.17341 23.7692C4.1501 23.7948 4.12678 23.8205 4.10346 23.8462C3.8033 23.7027 3.48853 23.613 3.15911 23.5769C2.81452 23.4712 2.52306 23.279 2.28472 23C2.1543 22.5057 2.29421 22.1468 2.70443 21.9231C3.08595 21.7453 3.47068 21.5787 3.85863 21.423C4.20394 21.1614 4.57702 20.9434 4.97786 20.7693C5.16942 20.5976 5.28601 20.3797 5.32761 20.1154C5.24891 19.7917 5.1673 19.4455 5.08278 19.0769C4.85517 18.6725 4.57537 18.3135 4.24336 18C3.89502 18.0379 3.53361 18.1021 3.15911 18.1923C2.78442 18.4411 2.38802 18.6462 1.96994 18.8077C1.57938 18.8183 1.21796 18.8312 0.885693 18.8462C0.653475 18.6708 0.525226 18.4272 0.50096 18.1154C0.516391 17.9061 0.574682 17.6882 0.675838 17.4615C1.20866 16.5154 1.84987 15.6565 2.59951 14.8847C2.89477 14.6325 3.22122 14.4401 3.57882 14.3077C3.62546 14.3333 3.67209 14.359 3.71873 14.3846C3.95698 14.2835 4.20181 14.2065 4.45321 14.1538C4.6916 14.2364 4.92478 14.2364 5.15273 14.1538C5.30604 14.223 5.45761 14.2999 5.60741 14.3846C5.86794 14.3408 6.08945 14.4433 6.27196 14.6923C6.29525 14.6667 6.31861 14.641 6.34191 14.6154C6.7514 14.9126 7.15943 15.2074 7.56604 15.5C7.93818 15.52 8.27631 15.6354 8.58035 15.8462C8.88344 15.8462 9.23323 15.8462 9.62964 15.8462C10.2125 15.7179 10.7955 15.5897 11.3784 15.4616C11.6558 15.5624 11.9357 15.5624 12.2178 15.4616C12.3111 15.4102 12.4044 15.359 12.4977 15.3077C12.5135 15.1081 12.5484 14.9158 12.6026 14.7308C12.5294 14.4565 12.576 14.2 12.7425 13.9616C12.7105 13.9297 12.6871 13.8912 12.6725 13.8461C12.831 13.3897 12.9826 12.9537 13.1272 12.5385C13.527 12.0508 13.9001 11.5892 14.2464 11.1538C14.5721 10.8333 14.9569 10.6538 15.4006 10.6154C15.8725 10.7121 16.3272 10.7121 16.7647 10.6154C17.2578 10.0469 17.8407 9.63666 18.5135 9.38464C18.5368 9.41021 18.5622 9.36429 18.5834 9.46151C18.6857 9.29173 18.8139 9.24043 18.9682 9.30769C19.1227 9.26112 19.2743 9.20973 19.4229 9.15387C19.8658 9.20517 20.3089 9.25639 20.7519 9.30769C21.068 8.8394 21.4644 8.48038 21.9411 8.2308C21.9644 8.25637 21.9877 8.2821 22.011 8.30767C22.205 8.1887 22.4149 8.11177 22.6406 8.07692C22.9073 8.13562 23.1637 8.13562 23.4101 8.07692C23.6199 8.12823 23.8298 8.1795 24.0397 8.2308C24.2228 8.13623 24.3977 8.16183 24.5643 8.30767C24.8537 7.89946 25.1568 7.50208 25.4736 7.11538C25.7101 7.02484 25.9317 6.90946 26.1381 6.76923C26.7407 6.77369 27.3469 6.77369 27.9569 6.76923C28.1336 6.81262 28.3084 6.86392 28.4815 6.92307C28.705 6.74169 28.9381 6.57499 29.181 6.42308C29.321 6.38462 29.4609 6.34615 29.6007 6.30769C29.9928 6.27166 30.3891 6.31012 30.7899 6.42308C30.8948 6.53846 30.9998 6.65385 31.1047 6.76923C31.5173 7.54016 31.8904 8.33503 32.224 9.15387C32.429 9.40109 32.6738 9.58056 32.9584 9.69228C33.4621 9.47112 33.9051 9.20192 34.2875 8.88459C34.4907 8.80487 34.6889 8.71506 34.8821 8.61539C34.9054 8.64104 34.9288 8.66669 34.952 8.69234C34.9782 8.62182 35.0132 8.55765 35.057 8.5C37.1189 7.46338 38.6228 5.80951 39.5688 3.53846C39.7345 2.77652 40.0727 2.12267 40.5831 1.57692C41.5395 0.815279 42.6005 0.289638 43.766 0C44.413 0.021377 45.0659 0.021377 45.7246 0C45.8706 0.0621615 46.0105 0.139085 46.1443 0.230769C46.4392 1.0882 46.1943 1.70358 45.4098 2.07693C44.919 2.68075 44.3944 3.24486 43.8359 3.76923C43.6847 4.22019 43.708 4.65609 43.9058 5.07692C44.2419 5.49805 44.58 5.92112 44.9202 6.34615C45.1895 6.51302 45.4577 6.67968 45.7246 6.84616C46.0626 6.6282 46.4008 6.41025 46.7389 6.19231C46.9901 5.96761 47.1883 5.69839 47.3335 5.38462C47.5717 5.13203 47.8165 4.88845 48.0679 4.65385C48.1612 4.60256 48.2545 4.55129 48.3478 4.5C48.7233 4.4698 49.0847 4.45698 49.432 4.46154C49.502 4.53846 49.5719 4.61539 49.6419 4.69231C49.6855 5.08873 49.7205 5.46053 49.7468 5.80769C49.5147 6.88115 49.1999 7.91961 48.8024 8.92311C48.36 9.47397 47.9286 10.0381 47.5083 10.6154C47.1723 10.7965 46.8226 10.9376 46.459 11.0385C45.9204 11.0761 45.4192 11.1145 44.9551 11.1538C45.087 11.5235 45.2152 11.9081 45.3398 12.3077C45.5789 15.1057 44.448 16.6185 41.9472 16.8462C41.6892 16.7858 41.4327 16.7088 41.1777 16.6154C40.8916 16.684 40.635 16.6071 40.4083 16.3846C40.2944 16.4306 40.1778 16.4048 40.0585 16.3077C40.0352 16.3333 40.0119 16.359 39.9885 16.3846C39.3519 16.1361 38.7224 16.1361 38.0999 16.3846C37.8819 16.389 37.6604 16.389 37.4353 16.3846C36.8059 16.5888 36.1762 16.7683 35.5466 16.9231C35.4967 17.1174 35.4501 17.3098 35.4067 17.5C35.4453 17.6075 35.4686 17.7101 35.4767 17.8077C35.43 18.2436 35.3834 18.6795 35.3368 19.1154C35.3299 19.8763 35.3532 20.6456 35.4067 21.423C35.3111 21.9436 35.1596 22.4436 34.952 22.923C34.4222 23.6272 33.9441 24.3323 33.518 25.0385C32.7156 26.229 31.9112 27.4214 31.1047 28.6154C31.0444 28.7374 30.9977 28.8657 30.9648 29C30.4977 29.5394 30.0547 30.1036 29.6357 30.6923C29.5843 30.8747 29.5261 31.0543 29.4609 31.2308C29.5134 31.7469 29.5134 32.2469 29.4609 32.7308C29.8758 34.2617 30.2372 35.7873 30.5451 37.3077C30.8732 38.6178 31.2579 39.9256 31.6993 41.2308C31.6847 41.2758 31.6613 41.3143 31.6294 41.3462C31.7163 41.4349 31.7863 41.5375 31.8392 41.6538C31.8664 41.7711 31.8664 41.8994 31.8392 42.0385C32.2483 42.9242 32.5048 43.8216 32.6086 44.7307C32.7848 45.1473 32.948 45.5703 33.0983 46C33.0837 46.0451 33.0604 46.0835 33.0284 46.1154C33.2454 46.5561 33.3387 47.0177 33.3082 47.5C33.4848 47.8522 33.6481 48.2113 33.7978 48.5769C33.7659 48.6088 33.7425 48.6472 33.7279 48.6923C33.8557 48.9193 33.9024 49.15 33.8678 49.3846C34.0381 49.9141 34.2246 50.4397 34.4274 50.9615C34.3909 51.0047 34.3676 51.056 34.3574 51.1154C34.5125 51.2467 34.5592 51.4006 34.4974 51.5769C34.5805 51.7227 34.6505 51.8765 34.7072 52.0385C34.6402 52.1267 34.6635 52.2036 34.7772 52.2692C34.7452 52.3011 34.7218 52.3395 34.7072 52.3846C34.896 52.6077 35.0593 52.8513 35.1969 53.1154C35.1736 53.141 35.1502 53.1667 35.1269 53.1923C35.3363 53.4313 35.4296 53.7005 35.4067 54C35.8259 55.0429 36.2456 56.0429 36.6658 57ZM41.8422 11.7692C42.1807 11.7308 42.4955 11.6154 42.7753 11.8461C42.7753 11.8461 42.9852 11.9231 43.0551 12C43.3 12.2307 43.4216 12.3846 43.4861 12.6923C43.6189 13.3255 43.4907 13.8768 43.1014 14.3462C42.8103 14.5769 42.4605 14.6539 42.0871 14.6923C41.831 14.6923 41.5512 14.6539 41.2826 14.5385C41.0265 14.2308 40.7817 13.8461 40.6531 13.4231C40.6531 13.0384 40.7914 12.6322 41.0728 12.3077C41.3063 12.0385 41.5162 11.8461 41.8422 11.7692ZM3.43892 28.3846C3.85754 28.3947 4.26559 28.3947 4.66307 28.3846C4.86886 28.3794 5.19742 28.5 5.32761 28.6538C5.58756 29.0571 5.79741 29.424 6.09708 29.7899C6.03707 29.9107 6.06038 30.0567 6.02713 30.1923C6.02562 30.3928 6.04893 30.5979 6.09708 30.8077C5.95986 31.1933 5.79664 31.5651 5.60741 31.9231C5.42305 32.0325 5.25982 32.1736 5.11776 32.3461C4.33 32.5588 3.60717 32.4563 2.94926 32.0385C2.79656 31.7601 2.62168 31.4651 2.42462 31.1538C2.22592 30.3478 2.35416 29.5914 2.80936 28.8846C3.02391 28.7163 3.23376 28.5496 3.43892 28.3846Z" fill="#111111"/>
<path d="M84.7923 46.0071C83.4558 46.0071 82.1809 45.8307 80.9685 45.4779C79.7805 45.0978 78.7165 44.5278 77.7757 43.7679C76.835 43.0079 76.0806 42.0715 75.5112 40.9586C74.9669 39.8457 74.6818 38.5293 74.6573 37.0093C74.6573 36.765 74.7315 36.5614 74.88 36.3986C75.0285 36.2086 75.2142 36.1136 75.4369 36.1136H78.9637C79.2852 36.1136 79.5206 36.2086 79.6691 36.3986C79.8421 36.5885 79.9787 36.8464 80.0775 37.1721C80.2015 38.1493 80.4858 38.95 80.9313 39.5743C81.3768 40.1714 81.9337 40.6193 82.6019 40.9179C83.2947 41.1893 84.0624 41.325 84.9036 41.325C86.4629 41.325 87.6509 40.7686 88.4676 39.6557C89.3088 38.5428 89.7298 36.9957 89.7298 35.0143V21.9043H77.1446C76.8721 21.9043 76.6494 21.8093 76.4764 21.6193C76.3279 21.4293 76.2536 21.1985 76.2536 20.9271V18.0771C76.2536 17.8057 76.3279 17.575 76.4764 17.385C76.6494 17.195 76.8721 17.1 77.1446 17.1H94.1105C94.383 17.1 94.6058 17.195 94.7788 17.385C94.9518 17.575 95.0386 17.8193 95.0386 18.1179V35.1771C95.0386 37.43 94.6058 39.3707 93.7393 40.9993C92.898 42.6279 91.71 43.8764 90.1753 44.745C88.6658 45.5864 86.8712 46.0071 84.7923 46.0071ZM110.606 46.0071C108.404 46.0071 106.511 45.6136 104.926 44.8264C103.343 44.0121 102.105 42.7771 101.214 41.1214C100.323 39.4385 99.8403 37.3486 99.7661 34.8514C99.7416 33.6843 99.7289 32.5307 99.7289 31.3907C99.7289 30.2507 99.7416 29.0836 99.7661 27.8893C99.8403 25.4193 100.336 23.3564 101.251 21.7007C102.167 20.045 103.417 18.7964 105.001 17.955C106.61 17.1136 108.478 16.6929 110.606 16.6929C112.735 16.6929 114.604 17.1136 116.212 17.955C117.821 18.7964 119.083 20.045 119.999 21.7007C120.915 23.3564 121.41 25.4193 121.484 27.8893C121.534 29.0836 121.558 30.2507 121.558 31.3907C121.558 32.5307 121.534 33.6843 121.484 34.8514C121.41 37.3486 120.927 39.4385 120.036 41.1214C119.145 42.7771 117.895 44.0121 116.286 44.8264C114.703 45.6136 112.809 46.0071 110.606 46.0071ZM110.606 41.325C112.215 41.325 113.527 40.8093 114.542 39.7779C115.557 38.7193 116.101 37.0093 116.175 34.6479C116.225 33.4535 116.249 32.3543 116.249 31.35C116.249 30.3185 116.225 29.2193 116.175 28.0521C116.126 26.4779 115.854 25.2021 115.358 24.225C114.888 23.2207 114.245 22.5014 113.428 22.0671C112.611 21.6057 111.671 21.375 110.606 21.375C109.567 21.375 108.639 21.6057 107.822 22.0671C107.005 22.5014 106.35 23.2207 105.854 24.225C105.384 25.2021 105.125 26.4779 105.075 28.0521C105.05 29.2193 105.038 30.3185 105.038 31.35C105.038 32.3543 105.05 33.4535 105.075 34.6479C105.149 37.0093 105.694 38.7193 106.708 39.7779C107.723 40.8093 109.023 41.325 110.606 41.325ZM127.324 45.6C127.076 45.6 126.866 45.505 126.693 45.315C126.519 45.125 126.433 44.8943 126.433 44.6229V18.1179C126.433 17.8193 126.519 17.575 126.693 17.385C126.866 17.195 127.076 17.1 127.324 17.1H138.09C140.095 17.1 141.729 17.4393 142.991 18.1179C144.253 18.7693 145.181 19.6786 145.775 20.8457C146.394 22.0128 146.703 23.37 146.703 24.9171C146.703 25.9486 146.53 26.8578 146.184 27.645C145.861 28.405 145.453 29.0293 144.958 29.5179C144.488 30.0064 144.018 30.3865 143.548 30.6579C144.513 31.1464 145.367 31.9607 146.109 33.1007C146.852 34.2407 147.223 35.5979 147.223 37.1721C147.223 38.8007 146.889 40.2528 146.221 41.5286C145.552 42.8043 144.562 43.8086 143.251 44.5414C141.939 45.2472 140.318 45.6 138.387 45.6H127.324ZM131.594 41.2843H137.793C139.13 41.2843 140.144 40.8907 140.838 40.1036C141.53 39.2893 141.877 38.3121 141.877 37.1721C141.877 35.9778 141.518 34.9872 140.8 34.2C140.107 33.4128 139.105 33.0193 137.793 33.0193H131.594V41.2843ZM131.594 28.785H137.422C138.733 28.785 139.711 28.4457 140.355 27.7671C141.023 27.0614 141.357 26.1522 141.357 25.0393C141.357 23.8993 141.023 23.0172 140.355 22.3929C139.711 21.7414 138.733 21.4157 137.422 21.4157H131.594V28.785ZM158.808 45.6C158.561 45.6 158.35 45.505 158.177 45.315C158.004 45.125 157.917 44.8943 157.917 44.6229V35.4214L149.156 18.4029C149.131 18.3485 149.106 18.2807 149.081 18.1993C149.057 18.1179 149.044 18.0364 149.044 17.955C149.044 17.7107 149.119 17.5071 149.267 17.3443C149.416 17.1814 149.589 17.1 149.787 17.1H153.091C153.388 17.1 153.623 17.1814 153.796 17.3443C153.994 17.5071 154.13 17.6836 154.205 17.8736L160.516 29.7214L166.79 17.8736C166.889 17.6836 167.025 17.5071 167.198 17.3443C167.396 17.1814 167.644 17.1 167.941 17.1H171.208C171.43 17.1 171.616 17.1814 171.764 17.3443C171.913 17.5071 171.987 17.7107 171.987 17.955C171.987 18.0364 171.975 18.1179 171.95 18.1993C171.95 18.2807 171.926 18.3485 171.876 18.4029L163.115 35.4214V44.6229C163.115 44.8943 163.028 45.125 162.855 45.315C162.682 45.505 162.459 45.6 162.186 45.6H158.808Z" fill="#111111"/>
<path d="M61.9979 0.814293C61.9979 0.589434 61.8316 0.40715 61.6266 0.40715C61.4216 0.40715 61.2554 0.589434 61.2554 0.814293V56.1857C61.2554 56.4106 61.4216 56.5929 61.6266 56.5929C61.8316 56.5929 61.9979 56.4106 61.9979 56.1857V0.814293Z" stroke="#111111"/>
</g>
<defs>
<clipPath id="clip0_103_10">
<rect width="173" height="57" fill="white"/>
</clipPath>
</defs>
</svg>
